PathFileType	3	(X/Y/Z)	D:\Vicon Database\Healthy Subjects\S0040\Jan. 30, 2020\Force Plate Walk 9.trc
DataRate	CameraRate	NumFrames	NumMarkers	Units	OrigDataRate	OrigDataStartFrame	OrigNumFrames
100.0	100.0	6	53	mm	100.0	405	299	
Frame#	Time	right_foot_cluster2			right_foot_cluster3			sternum_cluster1			sternum_cluster2			sternum_cluster3			left_asis			right_asis			left_psis			right_psis			sacrum_cluster1			sacrum_cluster2			sacrum_cluster3			left_lat_femoral_epicondyle			left_anterior_thigh15			left_anterior_thigh25			left_anterior_thigh50			left_lateral_thigh25			left_lateral_thigh50			left_thigh_cluster1			left_thigh_cluster2			left_thigh_cluster3			left_fibular_head			left_tibial_tuberosity			left_anterior_shank30			left_lateral_malleolus			left_shank_cluster1			left_shank_cluster2			left_shank_cluster3			left_heel			left_metatarsal2			left_foot_cluster1			left_foot_cluster2			left_foot_cluster3			right_lat_femoral_epicondyle			right_anterior_thigh15			right_anterior_thigh25			right_anterior_thigh50			right_lateral_thigh25			right_lateral_thigh50			right_thigh_cluster1			right_thigh_cluster2			right_thigh_cluster3			right_fibular_head			right_tibial_tuberosity			right_lateral_distal_shank			right_anterior_shank30			right_lateral_malleolus			right_shank_cluster1			right_shank_cluster2			right_shank_cluster3			right_heel			right_metatarsal2			right_foot_cluster1			
		X1	Y1	Z1	X2	Y2	Z2	X3	Y3	Z3	X4	Y4	Z4	X5	Y5	Z5	X6	Y6	Z6	X7	Y7	Z7	X8	Y8	Z8	X9	Y9	Z9	X10	Y10	Z10	X11	Y11	Z11	X12	Y12	Z12	X13	Y13	Z13	X14	Y14	Z14	X15	Y15	Z15	X16	Y16	Z16	X17	Y17	Z17	X18	Y18	Z18	X19	Y19	Z19	X20	Y20	Z20	X21	Y21	Z21	X22	Y22	Z22	X23	Y23	Z23	X24	Y24	Z24	X25	Y25	Z25	X26	Y26	Z26	X27	Y27	Z27	X28	Y28	Z28	X29	Y29	Z29	X30	Y30	Z30	X31	Y31	Z31	X32	Y32	Z32	X33	Y33	Z33	X34	Y34	Z34	X35	Y35	Z35	X36	Y36	Z36	X37	Y37	Z37	X38	Y38	Z38	X39	Y39	Z39	X40	Y40	Z40	X41	Y41	Z41	X42	Y42	Z42	X43	Y43	Z43	X44	Y44	Z44	X45	Y45	Z45	X46	Y46	Z46	X47	Y47	Z47	X48	Y48	Z48	X49	Y49	Z49	X50	Y50	Z50	X51	Y51	Z51	X52	Y52	Z52	X53	Y53	Z53	
405	4.04	1886.3917	143.93588	-220.52676	1880.8925	143.95851	-257.7572	1565.212	1434.1967	-144.4828	1551.9531	1407.0597	-136.26849	1554.2931	1409.7587	-174.29149	1560.371	1062.1339	-34.727245	1575.0304	1052.2756	-286.08884	1731.1587	1067.0205	-73.756096	1738.2533	1061.7244	-191.9706	1744.8325	1121.4644	-142.65839	1750.5879	1095.1063	-152.92528	1751.6495	1092.4337	-113.48298	1507.001	541.03784	-16.682522	1439.3817	642.04987	-70.69912	1443.7061	726.89508	-53.021595	1478.7743	858.76898	-32.358173	1543.2831	689.16785	11.504346	1570.584	834.73236	41.65464	1563.144	787.3277	47.290554	1559.5079	758.24072	42.60796	1524.9086	775.72662	44.344128	1493.1816	462.11096	-14.389795	1443.1342	459.02982	-73.656181	1478.4083	206.55684	-93.445824	1536.5227	96.615578	-65.457222	1448.188	402.99265	-105.29787	1443.8959	374.93228	-98.642151	1462.4965	377.66238	-131.78699	1610.6842	63.01973	-102.06834	1392.4689	72.70562	-104.74368	1453.9099	117.86236	-97.994278	1429.468	102.82591	-87.981377	1425.7792	108.13953	-125.95855	1589.8333	505.90308	-313.27356	1499.0605	585.56342	-261.86816	1490.8992	671.41962	-255.70914	1510.512	803.948	-255.74518	1598.713	658.83325	-325.47778	1618.8533	804.06183	-338.30704	1620.6995	754.59863	-346.94434	1607.0636	729.30688	-347.97693	1643.7839	724.15094	-336.14633	1631.4474	461.94464	-319.30783	1594.3556	415.10941	-274.86249	1849.3094	313.35492	-293.31851				1927.5925	248.75267	-277.46109	1652.0061	372.65985	-217.49933	1677.4951	360.23312	-210.38959	1667.9575	346.05032	-243.6356	1988.6132	305.49579	-243.09241	1905.8813	103.87176	-228.95047	1879.6218	171.23592	-229.75897
406	4.05	1850.8705	145.48129	-219.21681	1845.5658	145.54892	-256.41968	1551.0435	1436.6635	-144.42012	1537.7715	1409.4841	-136.31433	1540.3112	1412.2172	-174.37862	1546.2552	1064.0575	-34.854248	1562.3323	1055.171	-286.04153	1717.4457	1069.8896	-72.61853	1724.9501	1064.4058	-190.91159	1730.2333	1123.9023	-141.86945	1736.9542	1097.8949	-151.79979	1737.8983	1095.1632	-112.36102	1501.174	541.65839	-16.749599	1431.8684	641.48151	-71.645561	1434.9717	726.50183	-53.398411	1467.6591	858.69476	-31.725845	1535.5287	690.36987	11.305664	1560.2677	836.06476	41.798088	1553.7648	789.04529	47.35751	1550.7216	759.81836	42.795311	1516.4446	776.44983	44.084278	1489.1694	462.15579	-14.559715	1439.1897	458.319	-74.382782	1477.2115	206.20839	-93.632492	1536.2972	96.7883	-65.484627	1444.9839	402.3204	-105.43297	1440.9612	374.29144	-98.766792	1459.7483	377.14838	-132.45984	1610.6935	63.191303	-102.10872	1392.3417	72.355637	-104.71862	1453.6459	117.81134	-97.892059	1429.2517	102.70345	-87.953789	1425.7667	107.93012	-126.07656	1562.8822	509.63498	-312.67896	1474.3282	591.75391	-261.36136	1470.3234	677.01404	-255.1127	1493.1285	809.09094	-254.89929	1575.8416	661.97369	-324.79956	1601.1012	806.80212	-338.10522	1601.4634	757.2514	-346.59613	1587.2986	732.24945	-348.28873	1623.5424	726.02686	-335.92239	1602.1987	464.19376	-318.83853	1565.3373	418.91696	-273.75531	1818.5609	313.42261	-292.31296				1896.8331	247.93246	-275.96207	1623.046	377.06689	-215.65628	1648.5803	364.54663	-208.34448	1638.1576	349.43262	-241.25284	1960.3145	302.35001	-241.65308	1867.259	103.87054	-226.56032	1845.6979	172.91937	-228.33559
407	4.06	1813.8141	146.06453	-217.9478	1808.5793	146.42883	-256.05692	1537.014	1439.1061	-144.41664	1523.6938	1412.0049	-136.47047	1526.34	1414.8326	-174.43611	1532.4948	1066.0988	-34.79155	1549.355	1058.3815	-285.72968	1703.5614	1072.7374	-71.921432	1711.5089	1067.4041	-190.09958	1716.9646	1127.0939	-140.90578	1723.4775	1101.08	-150.86798	1724.0828	1098.1749	-111.49318	1496	542.32648	-16.912277	1424.9481	640.88641	-72.664131	1426.4777	726.08704	-53.991528	1456.6346	858.91895	-31.491488	1527.5475	691.91028	10.990668	1550.1307	837.64209	41.754196	1544.4697	790.82129	46.9935	1541.791	761.53473	42.540096	1507.26	777.63312	43.967915	1485.4419	462.34497	-14.904391	1435.113	457.97171	-75.090363	1476.0503	206.12852	-93.881943	1536.0253	97.051155	-65.430855	1442.4824	401.79092	-105.70415	1438.3984	373.85077	-98.975433	1457.1301	376.91943	-132.45943	1610.5892	63.480667	-102.06367	1392.3992	71.855293	-104.75481	1453.6261	117.7766	-98.224335	1428.9561	102.56415	-87.934387	1425.4757	107.80022	-126.10351	1536.1538	514.24213	-312.08447	1450.9708	598.14484	-261.0369	1449.0674	683.42572	-254.5667	1475.8319	814.66766	-254.17453	1553.5568	665.5036	-323.93109	1583.1084	810.00116	-337.82687	1582.6781	760.00183	-346.23993	1565.8347	735.6001	-346.37973	1602.5961	727.45697	-334.7457	1573.879	467.5134	-318.16943	1536.5686	423.30432	-272.71423	1786.8059	312.25909	-291.10822	1746.0712	282.52475	-245.76028	1865.4149	245.51134	-274.17834	1593.8501	382.02139	-213.80241	1619.2544	369.2005	-206.78174	1607.9633	353.20264	-238.7543	1931.2527	297.02106	-239.39378	1828.4801	103.79192	-225.19264	1810.5217	173.37259	-227.08397
408	4.07	1776.1327	145.91516	-217.0546	1771.4548	146.17049	-254.83147	1522.9913	1441.7157	-144.37646	1509.5126	1414.6691	-136.49059	1512.6167	1417.5122	-174.48288	1518.9442	1068.236	-34.43705	1536.1223	1061.7057	-285.02692	1689.8816	1075.6212	-71.645012	1698.1537	1070.6661	-189.62804	1703.6428	1130.4039	-140.12083	1709.8435	1104.1396	-150.34892	1710.324	1101.171	-111.06783	1491.5092	542.92865	-17.19541	1418.5897	640.19788	-73.368057	1418.3854	725.57574	-54.685349	1445.8718	859.00708	-31.51158	1519.7061	693.31622	10.661525	1539.8772	839.27618	41.489044	1535.0065	792.44519	46.617535	1532.9264	763.01593	42.245476	1498.109	778.65106	43.450577	1482.3041	462.46799	-15.232029	1432.3717	457.31882	-75.623222	1475.0734	206.14447	-94.067245	1535.8733	97.364792	-65.563744	1439.4573	401.75095	-105.85261	1436.2198	373.50839	-99.265739	1455.4426	376.5578	-132.62888	1610.5084	63.772694	-102.12413	1392.2122	71.598366	-104.72862	1453.3798	117.6216	-98.220604	1428.666	102.39267	-87.986061	1425.2098	107.64659	-126.10493	1510.6866	519.04718	-311.3295	1427.6031	605.05255	-260.6683	1428.236	690.26978	-254.07072	1458.7764	820.49493	-253.54723	1532.1367	669.44489	-323.26355	1565.9935	813.43695	-337.55081	1563.265	763.09528	-346.0192	1545.7136	738.72552	-345.66925	1582.9459	730.26581	-334.28934	1546.1152	470.7446	-317.24088	1508.0139	428.18106	-271.61505	1755.0271	310.11484	-289.56897	1713.7426	282.59842	-243.76558	1833.403	242.37061	-272.36493	1564.953	386.8522	-211.86099	1589.8599	373.75223	-204.85248	1577.6738	357.30804	-236.20702	1901.5466	289.91022	-236.65483	1788.1543	102.79868	-224.19493	1773.4512	173.57062	-226.839
409	4.08	1735.9822	145.11353	-216.36313	1732.9108	145.52391	-253.94472	1508.908	1444.379	-144.13397	1495.5375	1417.2253	-136.50201	1498.7877	1420.0922	-174.49539	1505.5442	1070.3115	-33.864758	1522.7463	1065.1357	-284.16797	1676.509	1078.6652	-71.54599	1684.7345	1074.0164	-189.55835	1690.2225	1133.6276	-139.71732	1696.4231	1107.3838	-150.10999	1696.8875	1104.1967	-110.82324	1487.6093	543.37958	-17.53965	1412.5219	639.34924	-73.833	1410.5709	724.80139	-55.319202	1435.2645	858.88318	-31.677023	1512.1467	694.43848	10.186326	1529.507	840.76068	41.165028	1525.4401	793.68365	46.244373	1523.8375	764.37561	41.74197	1488.8901	779.22198	42.92482	1479.5179	462.68341	-15.499741	1429.4484	456.93961	-75.718666	1474.1372	206.16333	-94.145309	1535.6227	97.540596	-65.639267	1437.6561	401.33191	-106.23151	1434.1738	373.32227	-99.456505	1452.9971	376.66327	-132.8616	1610.522	64.095108	-102.10635	1391.9758	71.350891	-104.73153	1452.9197	117.79125	-98.202568	1428.3966	102.2363	-88.029793	1424.9122	107.46368	-126.15834	1485.4058	524.10114	-310.95862	1404.8026	612.24902	-260.43979	1407.8403	697.35608	-253.67221	1442.053	826.51532	-253.0784	1511.4495	673.74652	-322.58646	1549.3949	817.20459	-337.43524	1544.8044	766.59747	-345.97287	1527.6166	742.93945	-345.84232	1563.2632	733.30731	-334.46774	1518.6918	474.16418	-316.15256	1479.3729	433.0853	-270.46359	1722.8427	307.09763	-287.60989	1681.4519	282.63406	-241.60774	1799.787	237.66356	-270.18723	1536.0294	391.66937	-209.90388	1560.5764	378.18176	-202.7916	1547.7323	361.12027	-233.58563	1871.1328	280.93454	-233.73199	1747.6941	100.62868	-222.8916	1735.4247	173.36935	-227.34703
410	4.09	1695.7411	143.92575	-215.92624	1692.9674	144.67128	-253.20009	1494.767	1446.947	-144.06976	1481.3605	1419.731	-136.49313	1484.9979	1422.6268	-174.52736	1492.2697	1072.2552	-33.254856	1509.1609	1068.6201	-283.20715	1663.1597	1081.6166	-71.644325	1671.4003	1077.3253	-189.57877	1676.811	1136.71	-139.55983	1682.9636	1110.5699	-149.98001	1683.4163	1107.2195	-110.67854	1483.957	543.79871	-18.195843	1406.9197	638.12878	-73.998512	1402.9882	723.65948	-55.873356	1424.6421	858.4953	-31.888922	1505.1611	695.30334	9.7521791	1519.0602	842.05743	40.772392	1515.9453	794.78442	45.958778	1514.9612	765.44006	41.408772	1479.8508	779.58734	42.57225	1477.4031	462.79916	-15.682263	1426.8976	456.58557	-75.718132	1473.2979	206.24606	-94.199997	1535.3969	97.977257	-65.883369	1435.402	401.12555	-106.26789	1432.2036	373.09692	-99.434769	1450.7234	376.60406	-132.97292	1610.3961	64.398872	-102.15792	1391.7198	71.151512	-104.68561	1452.6279	117.51396	-98.473434	1428.0732	102.0402	-88.089317	1424.5594	107.33938	-126.19525	1460.8025	529.23315	-310.18933	1382.6737	619.56409	-260.32114	1387.9856	704.5307	-253.42882	1425.708	832.55035	-252.78757	1491.0796	678.30072	-322.16278	1532.9203	821.04535	-337.46906	1526.7426	770.32086	-345.98337	1508.6683	746.99548	-345.1041	1545.1071	736.95709	-335.06787	1492.5266	477.63678	-315.10526	1451.8209	438.10193	-269.46112	1691.5187	303.82657	-285.9805	1649.1277	281.04468	-240.03841	1766.3658	231.67004	-268.15924	1507.3345	396.51184	-208.32735	1531.4536	382.21866	-201.00172	1517.7759	364.92856	-231.35648	1839.8085	270.13217	-230.75453	1702.5746	99.90316	-223.06104	1697.9949	172.31201	-225.66867
